<svg width="343" height="340" viewBox="0 0 343 340" fill="none" xmlns="http://www.w3.org/2000/svg">
<path d="M107.519 66C229.062 66 440.456 205.976 186.566 255.388C-67.3233 304.799 107.579 218.137 137.938 155.469C168.297 92.8008 21.9196 66 107.519 66Z" fill="#F5F9FE"/>
<circle cx="178" cy="176" r="92" fill="white" stroke="#0E263F" stroke-width="4"/>
<mask id="mask0" mask-type="alpha" maskUnits="userSpaceOnUse" x="88" y="86" width="180" height="180">
<circle cx="178" cy="176" r="90" fill="#C4C4C4"/>
</mask>
<g mask="url(#mask0)">
<path d="M222.548 216.938C214.714 212.403 208.942 216.114 209.766 225.184L222.96 365.369C223.785 374.44 225.434 389.283 226.671 398.354L234.917 468.858C236.154 477.929 243.576 488.237 252.234 491.535L271.2 499.369C279.446 502.668 290.991 503.08 296.763 499.369C302.536 495.658 306.659 485.763 305.834 476.692L295.526 324.138C295.114 315.068 290.579 301.461 285.631 293.628L253.883 243.326C248.936 235.492 238.628 225.597 230.794 221.474L222.548 216.938Z" fill="#0E263F"/>
<path d="M135.963 221.061C143.797 216.938 150.394 220.649 150.394 229.72V312.181C150.394 321.252 149.981 336.095 149.569 345.166L142.972 468.858C142.56 477.929 135.138 487.825 126.48 490.711L99.6796 500.194C91.0212 503.08 83.1873 498.545 82.3627 489.474L69.5812 381.861C68.3442 372.791 69.1689 358.36 71.2304 349.289L92.6704 257.757C94.732 249.098 102.978 238.378 110.812 233.843L135.963 221.061Z" fill="#0E263F"/>
<path d="M206.468 171.172C206.468 189.313 182.554 200.033 179.255 200.033C174.72 200.033 152.043 189.726 151.631 171.584C151.631 153.443 156.579 138.6 178.431 138.6C199.459 138.6 206.468 153.03 206.468 171.172Z" fill="#E2E4E8"/>
<path d="M154.204 179.442C157.847 179.407 160.768 176.056 160.729 171.957C160.689 167.858 157.704 164.564 154.06 164.599C150.417 164.634 147.495 167.986 147.535 172.084C147.575 176.183 150.56 179.477 154.204 179.442Z" fill="#E2E4E8"/>
<path d="M204.091 178.617C207.735 178.582 210.656 175.231 210.617 171.132C210.577 167.033 207.591 163.739 203.948 163.774C200.305 163.809 197.383 167.16 197.423 171.259C197.462 175.358 200.448 178.652 204.091 178.617Z" fill="#E2E4E8"/>
<path d="M175.132 186.427C170.185 186.427 167.299 190.55 168.948 195.498L169.772 197.56C171.422 202.507 169.36 208.28 165.237 211.166L161.939 213.227C157.816 215.701 157.403 220.649 161.114 223.947L168.123 229.72C172.246 233.018 177.606 235.492 180.492 235.492C183.379 235.492 188.739 233.018 192.862 229.72L199.871 223.535C203.582 220.236 203.169 215.701 199.046 213.227L195.336 211.166C190.8 208.692 188.326 202.507 189.563 197.56L189.976 195.498C191.212 190.55 187.914 186.427 182.966 186.84L175.132 186.427Z" fill="#E2E4E8"/>
<path d="M155.753 152.618C156.166 151.381 157.402 150.144 158.639 149.732L178.43 144.372C179.667 143.96 181.729 143.96 182.966 144.784L198.633 150.556C199.87 150.969 201.107 152.206 201.519 153.443L204.818 163.338C205.23 164.575 206.055 164.575 206.055 163.338L210.59 149.32C211.002 148.083 210.59 146.433 209.766 145.609L193.273 128.704C192.449 127.88 190.799 127.055 189.562 126.643L165.649 122.107C164.412 121.695 162.762 122.52 161.938 123.756L149.156 143.135C148.332 144.372 147.919 146.021 148.332 147.258L151.63 163.338C152.042 164.575 152.455 164.575 152.867 163.338L155.753 152.618Z" fill="#0E263F"/>
</g>
<g filter="url(#filter0_d)">
<circle cx="244" cy="110" r="28" fill="#31A2FF"/>
<path d="M232 111L240.5 118.5L257.5 103" stroke="white" stroke-width="4" stroke-linecap="round" stroke-linejoin="round"/>
</g>
<rect x="74.0713" y="234" width="10" height="10" transform="rotate(45 74.0713 234)" fill="#52C7A9"/>
<rect x="289.071" y="157" width="10" height="10" transform="rotate(45 289.071 157)" fill="#E46F6F"/>
<rect x="232.071" y="227" width="10" height="10" transform="rotate(45 232.071 227)" fill="#F8F274"/>
<rect x="127.071" y="213" width="10" height="10" transform="rotate(45 127.071 213)" fill="#31A2FF"/>
<rect x="133.071" y="71" width="10" height="10" transform="rotate(45 133.071 71)" fill="#F8F274"/>
<circle cx="294" cy="192" r="5" fill="#31A2FF"/>
<circle cx="63" cy="173" r="5" fill="#E46F6F"/>
<circle cx="194" cy="66" r="5" fill="#52C7A9"/>
<path fill-rule="evenodd" clip-rule="evenodd" d="M286 261V258H284V261H281V263H284V266H286V263H289V261H286Z" fill="#E46F6F"/>
<path fill-rule="evenodd" clip-rule="evenodd" d="M101 171V168H99V171L96 171V173H99V176H101V173H104V171L101 171Z" fill="#F8F274"/>
<path fill-rule="evenodd" clip-rule="evenodd" d="M82 115V112H80V115L77 115V117H80V120H82V117H85V115L82 115Z" fill="#52C7A9"/>
<defs>
<filter id="filter0_d" x="210" y="78" width="72" height="72" filterUnits="userSpaceOnUse" color-interpolation-filters="sRGB">
<feFlood flood-opacity="0" result="BackgroundImageFix"/>
<feColorMatrix in="SourceAlpha" type="matrix" values="0 0 0 0 0 0 0 0 0 0 0 0 0 0 0 0 0 0 127 0" result="hardAlpha"/>
<feOffset dx="2" dy="4"/>
<feGaussianBlur stdDeviation="4"/>
<feColorMatrix type="matrix" values="0 0 0 0 0.054902 0 0 0 0 0.14902 0 0 0 0 0.247059 0 0 0 0.15 0"/>
<feBlend mode="normal" in2="BackgroundImageFix" result="effect1_dropShadow"/>
<feBlend mode="normal" in="SourceGraphic" in2="effect1_dropShadow" result="shape"/>
</filter>
</defs>
</svg>
