<svg width="343" height="340" viewBox="0 0 343 340" fill="none" xmlns="http://www.w3.org/2000/svg">
<path d="M205.951 276.556C75.5736 317.325 -28.9769 233.76 55.4173 112.335C157.156 -6.74676 355.955 80.7453 313.017 138.263C270.08 195.78 321.548 240.409 205.951 276.556Z" fill="#F5F9FE"/>
<path d="M137 95C137 80.6406 148.641 69 163 69H167C181.359 69 193 80.6406 193 95V125H137V95Z" stroke="#0E263F" stroke-width="8"/>
<rect x="101" y="120" width="128" height="128" rx="14" fill="#F8F274"/>
<path fill-rule="evenodd" clip-rule="evenodd" d="M170.095 178.607C173.031 176.865 175 173.662 175 170C175 164.477 170.523 160 165 160C159.477 160 155 164.477 155 170C155 173.662 156.969 176.865 159.905 178.607L155 210H175L170.095 178.607Z" fill="#0E263F"/>
<g filter="url(#filter0_d)">
<path d="M55 198.789C55 192.747 76 185.079 86.5 184C97 185.079 118 192.747 118 198.789V221.447C117.7 237.632 97.4038 258 86.5 258C75.5962 258 55.3 237.632 55 221.447V198.789Z" fill="#31A2FF"/>
</g>
<path d="M75 219L83.5 226.5L100.5 211" stroke="white" stroke-width="4" stroke-linecap="round" stroke-linejoin="round"/>
<g filter="url(#filter1_d)">
<rect x="187" y="140" width="108" height="24" rx="10" fill="#52C7A9"/>
<circle cx="199" cy="152" r="4" fill="white"/>
<circle cx="211" cy="152" r="4" fill="white"/>
<circle cx="223" cy="152" r="4" fill="white"/>
<circle cx="235" cy="152" r="4" fill="white"/>
<circle cx="247" cy="152" r="4" fill="white"/>
<circle cx="259" cy="152" r="4" fill="white"/>
<circle cx="271" cy="152" r="4" fill="white"/>
<circle cx="283" cy="152" r="4" fill="white"/>
</g>
<defs>
<filter id="filter0_d" x="49" y="180" width="79" height="90" filterUnits="userSpaceOnUse" color-interpolation-filters="sRGB">
<feFlood flood-opacity="0" result="BackgroundImageFix"/>
<feColorMatrix in="SourceAlpha" type="matrix" values="0 0 0 0 0 0 0 0 0 0 0 0 0 0 0 0 0 0 127 0"/>
<feOffset dx="2" dy="4"/>
<feGaussianBlur stdDeviation="4"/>
<feColorMatrix type="matrix" values="0 0 0 0 0.054902 0 0 0 0 0.14902 0 0 0 0 0.247059 0 0 0 0.15 0"/>
<feBlend mode="normal" in2="BackgroundImageFix" result="effect1_dropShadow"/>
<feBlend mode="normal" in="SourceGraphic" in2="effect1_dropShadow" result="shape"/>
</filter>
<filter id="filter1_d" x="181" y="136" width="124" height="40" filterUnits="userSpaceOnUse" color-interpolation-filters="sRGB">
<feFlood flood-opacity="0" result="BackgroundImageFix"/>
<feColorMatrix in="SourceAlpha" type="matrix" values="0 0 0 0 0 0 0 0 0 0 0 0 0 0 0 0 0 0 127 0"/>
<feOffset dx="2" dy="4"/>
<feGaussianBlur stdDeviation="4"/>
<feColorMatrix type="matrix" values="0 0 0 0 0.054902 0 0 0 0 0.14902 0 0 0 0 0.247059 0 0 0 0.15 0"/>
<feBlend mode="normal" in2="BackgroundImageFix" result="effect1_dropShadow"/>
<feBlend mode="normal" in="SourceGraphic" in2="effect1_dropShadow" result="shape"/>
</filter>
</defs>
</svg>
