<svg width="343" height="340" viewBox="0 0 343 340" fill="none" xmlns="http://www.w3.org/2000/svg">
<path d="M91.2657 43C238.07 43 493.402 211.795 186.743 271.379C-119.916 330.963 91.3382 226.46 128.007 150.889C164.677 75.3186 -12.1246 43 91.2657 43Z" fill="#F5F9FE"/>
<path d="M200 90.4996C202.024 89.9811 204.024 89.4616 206 88.9413M286 125C198.5 22.5002 230.398 4.31368 280.5 12.5002C317.782 18.592 328.345 29.909 315.37 43.4996" stroke="#0E263F"/>
<rect x="243" y="46" width="80" height="120" rx="8" fill="#0E263F"/>
<path d="M247 56C247 52.6863 249.686 50 253 50H313C316.314 50 319 52.6863 319 56V143C319 145.209 317.209 147 315 147H251C248.791 147 247 145.209 247 143V56Z" fill="#F5F9FE"/>
<circle cx="283" cy="156" r="5" fill="#F5F9FE"/>
<rect x="251" y="94" width="64" height="36" rx="4" fill="#52C7A9"/>
<path d="M206 59C206 56.7909 207.791 55 210 55H243V91H210C207.791 91 206 89.2091 206 87V59Z" fill="#31A2FF"/>
<path d="M247 55H268C270.209 55 272 56.7909 272 59V87C272 89.2091 270.209 91 268 91H247V55Z" fill="#31A2FF" fill-opacity="0.6"/>
<path d="M251 138.5C251 136.291 252.791 134.5 255 134.5H311C313.209 134.5 315 136.291 315 138.5V147H251V138.5Z" fill="#52C7A9"/>
<rect x="256" y="99" width="17" height="3" fill="#0E263F"/>
<rect x="211" y="60" width="17" height="3" fill="#0E263F"/>
<rect x="256" y="140" width="17" height="3" fill="#0E263F"/>
<rect x="30.6914" y="30.9346" width="55.3769" height="83.0654" rx="5.53769" fill="#0E263F"/>
<path d="M33.4604 37.8567C33.4604 35.5629 35.3199 33.7034 37.6137 33.7034H79.1464C81.4402 33.7034 83.2997 35.5629 83.2997 37.8567V98.0791C83.2997 99.6083 82.06 100.848 80.5309 100.848H36.2293C34.7001 100.848 33.4604 99.6083 33.4604 98.0791V37.8567Z" fill="#F5F9FE"/>
<circle cx="58.38" cy="107.078" r="3.46106" fill="#F5F9FE"/>
<rect x="36.229" y="64.9832" width="44.3016" height="24.9196" rx="2.76885" fill="#D76B6C"/>
<rect x="23.6553" y="29.2897" width="57.4604" height="32.3215" rx="3.59128" fill="#31A2FF"/>
<circle cx="24" cy="29" r="6" fill="#E4DF6F"/>
<rect x="28.2061" y="34.6233" width="18.1342" height="3.20015" fill="#0E263F"/>
<rect x="39.7383" y="68.7664" width="13.9813" height="2.46729" fill="#0E263F"/>
<path d="M36.229 94.9642C36.229 93.435 37.4687 92.1953 38.9979 92.1953H77.7617C79.2909 92.1953 80.5306 93.435 80.5306 94.9642V100.848H36.229V94.9642Z" fill="#D76B6C"/>
<rect x="39.7383" y="95.9065" width="13.9813" height="2.46729" fill="#0E263F"/>
<rect x="123.251" y="172.932" width="104.2" height="156.3" rx="10.42" fill="#0E263F"/>
<path d="M128.46 185.957C128.46 181.641 131.959 178.142 136.275 178.142H214.426C218.742 178.142 222.241 181.641 222.241 185.957V299.275C222.241 302.152 219.908 304.485 217.031 304.485H133.67C130.793 304.485 128.46 302.152 128.46 299.275V185.957Z" fill="#F5F9FE"/>
<circle cx="175.351" cy="316.208" r="6.51251" fill="#F5F9FE"/>
<rect x="133.671" y="235.453" width="83.3601" height="46.8901" rx="5.21001" fill="#31A2FF"/>
<path d="M133.671 293.414C133.671 290.536 136.003 288.204 138.881 288.204H211.821C214.698 288.204 217.031 290.536 217.031 293.414V304.485H133.671V293.414Z" fill="#31A2FF"/>
<rect x="139.667" y="242.94" width="22.7901" height="5.90856" fill="#0E263F"/>
<rect x="139.667" y="295.273" width="22.7901" height="5.90856" fill="#0E263F"/>
<rect x="76.3608" y="156" width="139.368" height="71.1878" rx="10.42" fill="#31A2FF"/>
<rect x="88.1782" y="166.973" width="45.5803" height="8.44079" fill="#0E263F"/>
<rect x="88.3926" y="207.135" width="26.5701" height="8.02116" fill="#0E263F"/>
<rect x="118.973" y="207.135" width="26.5701" height="8.02116" fill="#0E263F"/>
<rect x="149.554" y="207.135" width="26.5701" height="8.02116" fill="#0E263F"/>
<rect x="180.135" y="207.135" width="26.5701" height="8.02116" fill="#0E263F"/>
<path d="M293.265 31L270.265 11.8795L265.277 8L305.735 9.38554L295.205 13.5422L293.265 31Z" fill="#E4DF6F"/>
<path d="M289.663 22.1325L265 8.2771L295.759 13.5422L289.663 22.1325Z" fill="#CBC663"/>
<path d="M206 88.9412C211.879 87.3931 217.547 85.8374 223 84.2772M315.37 43.4995C309.814 49.3199 299.94 55.5573 286 61.9798M235.5 80.5785C250.148 76.093 263.007 71.5911 274 67.1469" stroke="#0E263F"/>
</svg>
