<svg width="179" height="132" viewBox="0 0 179 132" fill="none" xmlns="http://www.w3.org/2000/svg">
<path d="M39.6237 30.6127C124.834 30.6127 273.037 87.8427 95.0419 108.045C-82.9531 128.247 39.6658 92.8148 60.9498 67.1926C82.2338 41.5704 -20.3874 30.6127 39.6237 30.6127Z" fill="#F5F9FE"/>
<path d="M70.1282 39.8606L13.0001 112.742L85.0602 100.311L86.5565 62.7219L70.1282 39.8606Z" fill="#0E263F"/>
<path d="M13.0002 112.742L92.0071 62.9179L119.693 88.9517L13.0002 112.742Z" fill="#31A2FF"/>
<path d="M124 31.6127L135 12.6127L119 25.6127L124 31.6127Z" fill="#0E263F"/>
<path d="M135 12.6127L103.5 21.6127L111 23.6127L115 32.6127L135 12.6127Z" fill="#52C7A9"/>
<path d="M46.2178 24.2662L48.0711 17.0968L53.9237 13L64.6535 29.3873L46.2178 24.2662Z" fill="#0E263F"/>
<path d="M48.2662 17.0968L37 19.1452L64.6535 29.3873L48.2662 17.0968Z" fill="#F8F274"/>
</svg>
