<svg width="48" height="48" viewBox="0 0 48 48" fill="none" xmlns="http://www.w3.org/2000/svg">
<path d="M34.5152 18.4991L34.0053 19.7139C33.9753 19.7889 33.9753 19.8789 34.0053 19.9689C34.5152 21.2137 34.7852 22.5785 34.7852 24.0034C34.7852 28.5028 32.0105 32.3723 28.081 33.9921C26.6262 34.592 25.0214 34.877 23.3416 34.787C17.8823 34.472 13.4728 30.0176 13.2029 24.5583C12.9029 18.3491 17.8673 13.2047 24.0015 13.2047C25.4413 13.2047 26.8212 13.4897 28.096 14.0146C28.156 14.0446 28.216 14.0446 28.276 14.0146L29.5358 13.4897C29.5958 13.4597 29.5958 13.3847 29.5358 13.3547C27.766 12.4398 25.7413 11.9449 23.5816 12.0049C17.2674 12.2299 12.153 17.4042 12.003 23.7184C11.8531 30.4676 17.2824 36.0019 24.0015 36.0019C25.2164 36.0019 26.3712 35.8219 27.4811 35.4919C32.4155 34.0071 36 29.4177 36 24.0034C36 22.0086 35.5201 20.1339 34.6502 18.4841C34.6202 18.4241 34.5452 18.4391 34.5152 18.4991Z" fill="#0E263F"/>
<path d="M27.601 19.309L25.9212 23.3584C25.8912 23.4334 25.9212 23.4784 25.9962 23.4334L27.7659 22.6985C27.8409 22.6685 27.9309 22.5785 27.9609 22.5036L28.7858 20.4938C28.8008 20.4488 28.8158 20.4038 28.8458 20.3588L27.6459 19.159C27.6309 19.219 27.616 19.264 27.601 19.309Z" fill="#0E263F"/>
<path d="M30.0008 21.6937L29.2659 23.4634C29.2359 23.5384 29.2659 23.5834 29.3409 23.5384L31.1107 22.8035C31.1557 22.7885 31.1856 22.7585 31.2306 22.7285L30.0458 21.5587C30.0308 21.6037 30.0158 21.6637 30.0008 21.6937Z" fill="#0E263F"/>
<path d="M25.1863 16.8943L21.0918 26.793C21.0468 26.898 21.0918 26.958 21.2118 26.913L22.9366 26.1931C23.0116 26.1631 23.1016 26.0731 23.1316 25.9981L26.4012 18.0791C26.4161 18.0491 26.4461 18.0041 26.4761 17.9741L25.2763 16.7743C25.2313 16.8193 25.2013 16.8643 25.1863 16.8943Z" fill="#0E263F"/>
<path d="M35.295 12.6048L25.3812 16.6993C25.3362 16.7143 25.3062 16.7443 25.2612 16.7743L26.4611 17.9741C26.5061 17.9291 26.5511 17.8991 26.5811 17.8841L28.3508 17.1492C28.4258 17.1192 28.4708 17.1492 28.4258 17.2242L27.6909 19.009C27.6759 19.054 27.6609 19.099 27.6309 19.144L28.8308 20.3438C28.8458 20.2988 28.8758 20.2388 28.8908 20.2088L30.4806 16.3843C30.5106 16.3093 30.6006 16.2194 30.6755 16.1894L32.4453 15.4544C32.5203 15.4245 32.5653 15.4544 32.5203 15.5294L30.0906 21.4087C30.0756 21.4537 30.0606 21.4987 30.0306 21.5437L31.2155 22.7135C31.2455 22.6835 31.2755 22.6385 31.2905 22.5935L35.3849 12.6948C35.4599 12.6048 35.3999 12.5598 35.295 12.6048Z" fill="#0766EF"/>
</svg>
