<svg width="24" height="24" viewBox="0 0 24 24" fill="none" xmlns="http://www.w3.org/2000/svg">
<path d="M0 8C0 3.58172 3.58172 0 8 0H24V16C24 20.4183 20.4183 24 16 24H0V8Z" fill="#0E263F"/>
<circle cx="9.00008" cy="9" r="2.33333" stroke="white"/>
<ellipse cx="15.0001" cy="9" rx="2.33333" ry="2.33333" stroke="white"/>
<path d="M13.3334 17.3333C13.3334 14.756 11.3933 12.6667 9.00008 12.6667C6.60685 12.6667 4.66675 14.756 4.66675 17.3333" stroke="white"/>
<path d="M19.3333 17.3333C19.3333 14.756 17.3634 12.6667 14.9333 12.6667C14.4191 12.6667 13.9254 12.7602 13.4667 12.9322C12.9202 13.1371 12.4232 13.4532 12 13.8549" stroke="white"/>
</svg>
