<svg width="180" height="118" viewBox="0 0 180 118" fill="none" xmlns="http://www.w3.org/2000/svg">
<path d="M40.6237 17C125.834 17 274.037 74.23 96.0419 94.432C-81.9531 114.634 40.6657 79.202 61.9497 53.5798C83.2337 27.9576 -19.3875 17 40.6237 17Z" fill="#F5F9FE"/>
<ellipse cx="44" cy="81" rx="7" ry="8" fill="#0E263F"/>
<ellipse cx="89" cy="80" rx="7" ry="8" fill="#0E263F"/>
<rect x="109.998" y="49" width="6" height="2" rx="1" fill="#31A2FF"/>
<path d="M42.0012 62.5C42.0012 61.3954 42.8967 60.5 44.0012 60.5H49.5012C50.6058 60.5 51.5012 61.3954 51.5012 62.5C51.5012 63.6046 50.6058 64.5 49.5012 64.5H44.0012C42.8967 64.5 42.0012 63.6046 42.0012 62.5Z" fill="#E46F6F"/>
<rect x="31" y="66" width="91" height="13" fill="#31A2FF"/>
<path d="M58.7499 49L113.5 49L120.5 62.5H44.4999L58.7499 49Z" fill="#31A2FF"/>
<path d="M31 79H122C122 81.2091 120.209 83 118 83H35C32.7908 83 31 81.2091 31 79Z" fill="#0E263F"/>
<path d="M31 66.5H122L120.5 62.5H38.4226C36.3847 62.5 34.4236 63.2777 32.9397 64.6744L31 66.5Z" fill="#31A2FF"/>
<path d="M31 66.5H122L120.5 62.5H38.4226C36.3847 62.5 34.4236 63.2777 32.9397 64.6744L31 66.5Z" fill="#31A2FF"/>
<path d="M31 66.5H59L61.25 64H33.6332L31 66.5Z" fill="#0E263F"/>
<path d="M57.2499 50.5004L76.79 50.5C77.5548 50.5 78.0366 51.3237 77.6616 51.9903L71.7499 62.5004H44.4999L57.2499 50.5004Z" fill="#0E263F"/>
<path d="M79.6735 51.4658C80.0357 50.8663 80.685 50.5 81.3853 50.5L95.0366 50.5C95.9114 50.5 96.6847 51.0685 96.9456 51.9034L99.4456 59.9035C99.8481 61.1913 98.8859 62.5 97.5366 62.5H73.007L76.632 56.5L79.6735 51.4658Z" fill="#0E263F"/>
<path d="M98.565 53.0965C98.1625 51.8087 99.1246 50.5 100.474 50.5L112.244 50.5C113.014 50.5 113.715 50.9417 114.048 51.6358L117.881 59.6358C118.517 60.9633 117.55 62.5 116.077 62.5H102.974C102.099 62.5 101.326 61.9315 101.065 61.0966L98.565 53.0965Z" fill="#0E263F"/>
<path d="M70.0018 62.5C70.0018 61.3954 70.8972 60.5 72.0018 60.5H77.5018C78.6064 60.5 79.5018 61.3954 79.5018 62.5C79.5018 63.6046 78.6064 64.5 77.5018 64.5H72.0018C70.8972 64.5 70.0018 63.6046 70.0018 62.5Z" fill="#E46F6F"/>
<path d="M61.2569 63.999H66.7569L64.5069 66.499H59.0069L61.2569 63.999Z" fill="#F8F274"/>
<path d="M31 64.999C31 64.4467 31.4477 63.999 32 63.999H34.25L34.75 66.499H31V64.999Z" fill="#F8F274"/>
<rect x="36.0017" y="70" width="18.5" height="5" rx="2.5" fill="#0E263F"/>
<path d="M56.4999 72C56.4999 70.8954 57.4139 70 58.5184 70C59.9334 70 60.9283 71.4291 60.4028 72.7428L59.9497 73.8755C59.678 74.5547 59.0203 75 58.2888 75C57.3008 75 56.4999 74.1991 56.4999 73.2111V72Z" fill="#0E263F"/>
<path d="M34.5008 71.5096C34.5008 70.6759 33.8249 70 32.9912 70C31.9916 70 31.268 70.954 31.5375 71.9167L32.1566 74.1278C32.301 74.6435 32.7711 75 33.3066 75C33.9662 75 34.5008 74.4653 34.5008 73.8058V71.5096Z" fill="#0E263F"/>
<circle cx="74.0078" cy="82" r="8" fill="#0E263F"/>
<circle cx="73.9917" cy="82" r="3.5" fill="#F8F274"/>
<circle cx="108.008" cy="82" r="8" fill="#0E263F"/>
<circle cx="107.992" cy="82" r="3.5" fill="#F8F274"/>
<rect width="3" height="1" rx="0.5" transform="matrix(-1 0 0 1 90.0007 21)" fill="#52C7A9"/>
<path d="M123.999 27.75C123.999 27.1977 123.552 26.75 122.999 26.75H120.249C119.697 26.75 119.249 27.1977 119.249 27.75C119.249 28.3023 119.697 28.75 120.249 28.75H122.999C123.552 28.75 123.999 28.3023 123.999 27.75Z" fill="#E46F6F"/>
<circle r="3.5" transform="matrix(-1 0 0 1 121.999 35.5)" fill="#0E263F"/>
<circle r="3.5" transform="matrix(-1 0 0 1 98.7468 35.5)" fill="#0E263F"/>
<rect width="45.5" height="4.75" transform="matrix(-1 0 0 1 129.5 29.75)" fill="#52C7A9"/>
<path d="M115.625 21L88.2499 21L84.7499 27.75H122.75L115.625 21Z" fill="#52C7A9"/>
<path d="M129.5 34.5H84C84 35.6046 84.8954 36.5 86 36.5H127.5C128.605 36.5 129.5 35.6046 129.5 34.5Z" fill="#0E263F"/>
<path d="M129.5 29.75H84L84.75 27.75H124.457C126.331 27.75 128.135 28.4653 129.5 29.75Z" fill="#31A2FF"/>
<path d="M129.5 29.75H84L84.75 27.75H124.457C126.331 27.75 128.135 28.4653 129.5 29.75Z" fill="#52C7A9"/>
<path d="M129.5 29.75H115.5L114.375 28.5H128.183L129.5 29.75Z" fill="#0E263F"/>
<path d="M116.375 21.75H109.107C107.563 21.75 106.602 23.4244 107.379 24.7577L109.125 27.75H122.75L116.375 21.75Z" fill="#0E263F"/>
<path d="M105.455 22.7158C105.093 22.1163 104.444 21.75 103.743 21.75L98.2169 21.75C97.3421 21.75 96.5689 22.3185 96.3079 23.1534L95.6829 25.1535C95.2805 26.4413 96.2426 27.75 97.5919 27.75H108.497L106.684 24.75L105.455 22.7158Z" fill="#0E263F"/>
<path d="M95.3118 24.3465C95.7143 23.0587 94.7521 21.75 93.4029 21.75L89.5077 21.75C88.738 21.75 88.0366 22.1917 87.704 22.8858L86.7457 24.8858C86.1096 26.2133 87.0772 27.75 88.5493 27.75H92.7779C93.6526 27.75 94.4259 27.1815 94.6868 26.3466L95.3118 24.3465Z" fill="#0E263F"/>
<path d="M109.999 27.75C109.999 27.1977 109.551 26.75 108.999 26.75H106.249C105.697 26.75 105.249 27.1977 105.249 27.75C105.249 28.3023 105.697 28.75 106.249 28.75H108.999C109.551 28.75 109.999 28.3023 109.999 27.75Z" fill="#E46F6F"/>
<path d="M114.372 28.5H111.622L112.747 29.75H115.497L114.372 28.5Z" fill="#F8F274"/>
<path d="M128.25 28.5H127.875L127.625 29.75H129.5L128.25 28.5Z" fill="#F8F274"/>
<rect width="9.25" height="2.5" rx="1.25" transform="matrix(-1 0 0 1 126.999 31.5)" fill="#0E263F"/>
<path d="M116.75 32.5093C116.75 31.9519 116.298 31.5 115.741 31.5C115.027 31.5 114.538 32.2212 114.804 32.8841L115.025 33.4377C115.161 33.7773 115.49 34 115.856 34C116.35 34 116.75 33.5995 116.75 33.1056V32.5093Z" fill="#0E263F"/>
<path d="M127.749 32.2548C127.749 31.8379 128.087 31.5 128.504 31.5C129.004 31.5 129.366 31.977 129.231 32.4583L128.922 33.5639C128.849 33.8217 128.614 34 128.347 34C128.017 34 127.749 33.7327 127.749 33.4029V32.2548Z" fill="#0E263F"/>
<circle r="4" transform="matrix(-1 0 0 1 108.496 36)" fill="#0E263F"/>
<circle r="1.75" transform="matrix(-1 0 0 1 108.504 36)" fill="#F8F274"/>
<circle r="4" transform="matrix(-1 0 0 1 89.748 36)" fill="#0E263F"/>
<circle r="1.75" transform="matrix(-1 0 0 1 89.7502 36)" fill="#F8F274"/>
</svg>
