<svg width="52" height="52" viewBox="0 0 52 52" fill="none" xmlns="http://www.w3.org/2000/svg">
<path d="M26.3885 10.286C43.3494 -2.07457 61.1857 18.0067 46.6322 39.1644C29.0876 59.9137 -6.40261 29.8847 1.00183 19.8626C8.40628 9.84055 9.42758 22.6465 26.3885 10.286Z" fill="#F5F9FE"/>
<circle cx="11.375" cy="41.4375" r="1.9375" fill="white" stroke="#0E263F"/>
<circle cx="29.25" cy="41.4375" r="1.9375" fill="white" stroke="#0E263F"/>
<path d="M8.9375 37.7812H30.4687L33.3125 18.2812C33.3125 16.9271 34.0437 14.2188 36.9687 14.2188C39.8937 14.2188 40.3542 16.9271 40.2187 18.2812" stroke="#0E263F"/>
<rect x="12.1875" y="29.25" width="17.875" height="8.125" fill="#0E263F"/>
<rect x="7.3125" y="21.125" width="14.625" height="8.125" fill="#F8F274"/>
<rect x="13" y="8.125" width="14.625" height="4.875" fill="#D283F8"/>
<rect x="17.875" y="13" width="14.625" height="8.125" fill="#6FE4BF"/>
<rect x="9.75" y="13" width="8.125" height="8.125" rx="4.0625" fill="#31A2FF"/>
<circle cx="26" cy="25.1875" r="4.0625" fill="#E46F6F"/>
<path d="M35.75 36.5625H42.25" stroke="#0E263F"/>
<path d="M33.3125 41.4375L45.5 41.4375" stroke="#0E263F"/>
<path d="M34.125 39H37.375" stroke="#0E263F"/>
</svg>
