<svg width="180" height="118" viewBox="0 0 180 118" fill="none" xmlns="http://www.w3.org/2000/svg">
<path d="M91.0934 14.0879C138.828 -20.3493 189.026 35.5983 148.067 94.5448C98.6899 152.354 -1.19326 68.691 19.6457 40.769C40.4846 12.8469 43.3589 48.5251 91.0934 14.0879Z" fill="#F5F9FE"/>
<path d="M120.913 46.02H141.652V97.5467H120.913V46.02Z" fill="#0E263F"/>
<path d="M45.3913 46.02H66.1305V97.5467H45.3913V46.02Z" fill="#0E263F"/>
<path d="M66.1305 33.4333H120.913V97.5467H66.1305V33.4333Z" fill="#31A2FF"/>
<rect x="106.435" y="46.02" width="8.21739" height="10.2267" fill="white"/>
<path opacity="0.1" d="M106.435 46.02H114.652L108.284 56.2467H106.435V46.02Z" fill="#0766EF"/>
<rect x="127.174" y="52.3134" width="8.21738" height="10.2267" fill="white"/>
<path opacity="0.1" d="M127.174 52.3134H135.391L129.023 62.54H127.174V52.3134Z" fill="#0766EF"/>
<rect x="51.6522" y="52.3134" width="8.2174" height="10.2267" fill="white"/>
<path opacity="0.1" d="M51.6522 52.3134H59.8696L53.5011 62.54H51.6522V52.3134Z" fill="#0766EF"/>
<rect x="106.435" y="61.36" width="8.21739" height="10.2267" fill="white"/>
<path opacity="0.1" d="M106.435 61.36H114.652L108.284 71.5867H106.435V61.36Z" fill="#0766EF"/>
<rect x="127.174" y="67.6534" width="8.21738" height="10.2267" fill="white"/>
<path opacity="0.1" d="M127.174 67.6534H135.391L129.023 77.88H127.174V67.6534Z" fill="#0766EF"/>
<rect x="51.6522" y="67.6534" width="8.2174" height="10.2267" fill="white"/>
<path opacity="0.1" d="M51.6522 67.6534H59.8696L53.5011 77.88H51.6522V67.6534Z" fill="#0766EF"/>
<rect x="95.087" y="46.02" width="8.2174" height="10.2267" fill="white"/>
<path opacity="0.1" d="M95.087 46.02H103.304L96.9359 56.2467H95.087V46.02Z" fill="#0766EF"/>
<rect x="95.087" y="61.36" width="8.2174" height="10.2267" fill="white"/>
<path opacity="0.1" d="M95.087 61.36H103.304L96.9359 71.5867H95.087V61.36Z" fill="#0766EF"/>
<rect x="83.7391" y="46.02" width="8.21739" height="10.2267" fill="white"/>
<path opacity="0.1" d="M83.7391 46.02H91.9565L85.5881 56.2467H83.7391V46.02Z" fill="#0766EF"/>
<rect x="83.7391" y="61.36" width="8.21739" height="10.2267" fill="white"/>
<path opacity="0.1" d="M83.7391 61.36H91.9565L85.5881 71.5867H83.7391V61.36Z" fill="#0766EF"/>
<rect x="72.3913" y="46.02" width="8.21739" height="10.2267" fill="white"/>
<path opacity="0.1" d="M72.3913 46.02H80.6087L74.2402 56.2467H72.3913V46.02Z" fill="#0766EF"/>
<rect x="72.3913" y="46.02" width="8.21739" height="10.2267" fill="white"/>
<path opacity="0.1" d="M72.3913 46.02H80.6087L74.2402 56.2467H72.3913V46.02Z" fill="#0766EF"/>
<rect x="72.3913" y="61.36" width="8.21739" height="10.2267" fill="white"/>
<path opacity="0.1" d="M72.3913 61.36H80.6087L74.2402 71.5867H72.3913V61.36Z" fill="#0766EF"/>
<rect x="83.3478" y="77.4867" width="20.3478" height="20.06" fill="#0E263F"/>
<rect x="86.8696" y="81.8134" width="6.26086" height="15.7333" fill="white"/>
<rect x="91.5652" y="88.8934" width="0.782608" height="2.35999" fill="#0E263F"/>
<rect x="93.9131" y="81.8134" width="6.26089" height="15.7333" fill="white"/>
<rect x="94.6957" y="88.8934" width="0.782623" height="2.35999" fill="#0E263F"/>
<ellipse cx="93.5217" cy="33.4333" rx="8.21739" ry="8.26" fill="white"/>
<path fill-rule="evenodd" clip-rule="evenodd" d="M94.7187 32.2302V28.32H92.3248L92.3248 32.2302H88.4348V34.6365H92.3248L92.3248 38.5467H94.7187V34.6365H98.6087V32.2302H94.7187Z" fill="#E46F6F"/>
<path fill-rule="evenodd" clip-rule="evenodd" d="M114.744 100.693H149.497C149.739 99.8839 149.87 99.0256 149.87 98.1367C149.87 93.2489 145.928 89.2867 141.065 89.2867C139.602 89.2867 138.222 89.6456 137.007 90.2807C135.097 87.5392 131.931 85.7467 128.348 85.7467C123.653 85.7467 119.674 88.8245 118.298 93.0822C116.115 94.3844 114.652 96.7771 114.652 99.5133C114.652 99.9149 114.684 100.309 114.744 100.693Z" fill="#F8F274"/>
<path fill-rule="evenodd" clip-rule="evenodd" d="M38.44 100.693H73.1923C73.4348 99.8839 73.5652 99.0256 73.5652 98.1367C73.5652 93.2489 69.6234 89.2867 64.7609 89.2867C64.5848 89.2867 64.41 89.2919 64.2365 89.3021C62.3016 87.1205 59.4843 85.7467 56.3478 85.7467C52.0253 85.7467 48.309 88.356 46.6729 92.093C46.381 92.058 46.0839 92.04 45.7826 92.04C41.6765 92.04 38.3478 95.3859 38.3478 99.5133C38.3478 99.9149 38.3793 100.309 38.44 100.693Z" fill="#52C7A9"/>
</svg>
