<svg width="180" height="118" viewBox="0 0 180 118" fill="none" xmlns="http://www.w3.org/2000/svg">
<path d="M74.2361 7.43015C137.512 -12.3611 188.254 28.2056 147.295 87.1522C97.9178 144.961 1.43417 102.488 22.2731 74.5655C43.112 46.6435 18.1331 24.9778 74.2361 7.43015Z" fill="#F5F9FE"/>
<rect x="27.1956" y="69.2266" width="51.6522" height="27.5333" fill="#31A2FF"/>
<rect x="91.7609" y="14.1599" width="27.3913" height="27.5333" fill="#F8F274"/>
<rect x="31.8913" y="54.6733" width="8.60869" height="14.5533" fill="#CBC663"/>
<rect x="30.7174" y="54.6733" width="8.6087" height="14.5533" fill="#F8F274"/>
<ellipse cx="95.6739" cy="82.9932" rx="13.6957" ry="13.7667" fill="#E46F6F"/>
<ellipse cx="54.1957" cy="55.46" rx="13.6957" ry="13.7667" fill="#0E263F"/>
<ellipse cx="91.1431" cy="88.531" rx="8.24828" ry="8.29105" fill="#CBC663"/>
<ellipse cx="90.2265" cy="88.531" rx="8.24829" ry="8.29105" fill="#F8F274"/>
<ellipse cx="82.8947" cy="88.531" rx="8.24828" ry="8.29105" fill="#CBC663"/>
<ellipse cx="81.9783" cy="88.531" rx="8.24829" ry="8.29105" fill="#F8F274"/>
<ellipse cx="73.7299" cy="88.531" rx="8.24828" ry="8.29105" fill="#CBC663"/>
<ellipse cx="72.8135" cy="88.531" rx="8.24828" ry="8.29105" fill="#F8F274"/>
<path d="M112.5 69.2266H147.326V96.7599H112.5V69.2266Z" fill="#31A2FF"/>
<rect x="126.587" y="45.6267" width="8.60868" height="23.6" fill="#CBC663"/>
<rect x="125.413" y="45.6267" width="8.60868" height="23.6" fill="#F8F274"/>
<rect x="67.8913" y="41.6934" width="55.5652" height="27.5333" fill="#52C7A9"/>
<ellipse rx="6.65218" ry="6.68667" transform="matrix(1 0 0 -1 85.1087 35.0067)" fill="#F8F274"/>
</svg>
