<svg width="180" height="118" viewBox="0 0 180 118" fill="none" xmlns="http://www.w3.org/2000/svg">
<path d="M101.557 18.0934C178.164 18.0934 193.322 74.389 89.3401 91.0506C-14.6419 107.712 18.1049 85.4481 37.2401 59.809C56.3752 34.1698 47.6042 18.0934 101.557 18.0934Z" fill="#F5F9FE"/>
<rect x="75.9887" y="73.7858" width="50.6917" height="20.3818" fill="white"/>
<path d="M127 75.5H76V94.5H127" stroke="#31A2FF" stroke-width="5"/>
<path d="M124.399 80.155H89.929" stroke="#E6F0FD" stroke-width="1.29545"/>
<path d="M124.653 86.7792L105.39 86.7792" stroke="#E6F0FD" stroke-width="1.29545"/>
<path fill-rule="evenodd" clip-rule="evenodd" d="M80.5509 73L58.7535 73L58.7535 97L80.5509 97L80.5509 94.8183L78.8996 94.8183L78.8996 75.1819L80.5509 75.1819L80.5509 73Z" fill="#31A2FF"/>
<rect x="98.0396" y="71.7476" width="50.6917" height="20.3818" transform="rotate(-180 98.0396 71.7476)" fill="white"/>
<path d="M47 70.5L97 70.5L97 50L47 50" stroke="#0E263F" stroke-width="5"/>
<path d="M50.3893 65.3783H73.961" stroke="#E6F0FD" stroke-width="1.29545"/>
<path d="M49.3755 58.7542H84.0993" stroke="#E6F0FD" stroke-width="1.29545"/>
<path fill-rule="evenodd" clip-rule="evenodd" d="M87 73L120 73L120 48L87 48L87 50.2729L89.5 50.2729L89.5 70.7274H87L87 73Z" fill="#0E263F"/>
<path d="M56.2189 58.7542H61.2881V70.2189L58.7535 67.5213L56.2189 70.2189V58.7542Z" fill="#E46F6F"/>
<rect x="85.113" y="24.9457" width="50.6917" height="20.3818" fill="white"/>
<path d="M134.031 31.3151L103.616 31.3151" stroke="#E6F0FD" stroke-width="1.29545"/>
<path d="M135.692 24.5H85V45.5H110.346H135.692" stroke="#52C7A9" stroke-width="5"/>
<path d="M133.777 37.9391L114.514 37.9391" stroke="#E6F0FD" stroke-width="1.29545"/>
<path fill-rule="evenodd" clip-rule="evenodd" d="M101 22L59 22L59 48L101 48L101 44.3085L97.8745 44.3085L97.8745 25.9648L101 25.9648L101 22Z" fill="#52C7A9"/>
<path d="M127.174 31.0066H131.87V38.8733L129.522 37.0223L127.174 38.8733V31.0066Z" fill="#E46F6F"/>
<path d="M95.8696 92.04H150.99C152.532 92.04 153.783 93.2903 153.783 94.8325V95.2886C153.783 96.8308 152.532 98.081 150.99 98.081H95.8696V92.04Z" fill="#0E263F"/>
<path d="M95.8696 93.1384H140.933C141.995 93.1384 142.856 93.999 142.856 95.0606C142.856 96.1221 141.995 96.9827 140.933 96.9827H95.8696V93.1384Z" fill="#E2EBF2"/>
<rect width="3.40181" height="25.4945" transform="matrix(-0.324827 -0.945774 0.944539 -0.328401 77.413 98.7002)" fill="#E46F6F"/>
<ellipse rx="0.486842" ry="0.486084" transform="matrix(-0.324529 -0.945878 0.944436 -0.328702 106.671 86.7326)" fill="#0E263F"/>
<path d="M101.49 90.3373L100.384 87.1155L106.515 86.2699L106.831 87.1905L101.49 90.3373Z" fill="#E2EBF2"/>
<rect width="1.94827" height="0.972748" transform="matrix(-0.324577 -0.945861 0.944453 -0.328653 76.2609 98.3273)" fill="#0E263F"/>
<rect width="2.43338" height="3.64456" transform="matrix(-0.324547 -0.945872 0.944442 -0.328684 72.8995 99.7526)" fill="#0E263F"/>
</svg>
