<svg width="126" height="130" viewBox="0 0 126 130" fill="none" xmlns="http://www.w3.org/2000/svg">
<path d="M63.8517 40.2733C101.035 13.2625 140.138 57.1449 108.232 103.38C69.7691 148.722 -8.03649 83.1012 8.19633 61.2006C24.4292 39.2999 26.6682 67.2841 63.8517 40.2733Z" fill="#F5F9FE"/>
<rect x="32" y="30" width="64.6667" height="97" rx="6.46667" fill="#0E263F"/>
<rect x="35.2334" y="33.2333" width="58.2" height="78.4083" rx="4.85" fill="white"/>
<rect x="44" y="98" width="27.3333" height="13.6667" fill="#F8F274"/>
<rect x="57.6665" y="84.3333" width="27.3333" height="13.6667" fill="#31A2FF"/>
<rect x="44" y="70.6666" width="27.3333" height="13.6667" fill="#52C7A9"/>
<rect x="71.3335" y="70.6666" width="13.6667" height="13.6667" fill="#0E263F"/>
<rect x="44" y="57" width="41" height="13.6667" fill="#31A2FF"/>
<circle cx="78.1668" cy="104.833" r="6.83333" fill="#52C7A9"/>
<circle cx="50.8333" cy="91.1666" r="6.83333" fill="#E46F6F"/>
<circle cx="64.3332" cy="118.917" r="4.04167" fill="#F5F9FE"/>
<circle cx="93" cy="33" r="16" fill="#52C7A9"/>
<path d="M80.8937 16.6165C84.9189 13.7653 89.8983 12.4839 94.8233 13.0659M108.637 21.1516C111.115 24.5573 112.454 28.6701 112.472 32.8635" stroke="#0E263F"/>
<path d="M104.023 11.8964C101.727 10.6355 99.315 9.78953 96.8735 9.33336M76.4811 15.024C78.7972 12.9563 81.4714 11.3827 84.3341 10.3526M108.918 15.4476C115.012 21.1725 117.673 29.712 115.966 37.8515" stroke="#0E263F"/>
<path fill-rule="evenodd" clip-rule="evenodd" d="M84.4142 31.3137L83 32.7279L89.364 39.0919L90.7782 40.5061L103.506 27.7782L102.092 26.3639L90.7782 37.6777L84.4142 31.3137Z" fill="white"/>
</svg>
