<svg width="413" height="164" viewBox="0 0 413 164" fill="none" xmlns="http://www.w3.org/2000/svg">
<path d="M1 144.5C16.8333 127.167 97.6 67.7998 114 82.9998C134.5 102 60 93.4998 92 141C124 188.5 381 156 407 67.4997C433 -21.0003 350.5 140 306.5 72.5C271.3 18.4999 334.167 2.33331 370 1" stroke="#0E263F"/>
<rect x="331.245" y="77" width="24" height="14" transform="rotate(11.3052 331.245 77)" fill="#F8F274"/>
<circle cx="341.64" cy="86.2166" r="4" transform="rotate(11.3052 341.64 86.2166)" fill="white"/>
<rect x="52.6089" y="96.8176" width="24" height="14" transform="rotate(-29.5039 52.6089 96.8176)" fill="#31A2FF"/>
<circle cx="66.5" cy="97.0001" r="4" transform="rotate(-29.5039 66.5 97.0001)" fill="white"/>
<rect x="78.6104" y="113.924" width="12" height="7" transform="rotate(15.6283 78.6104 113.924)" fill="#E46F6F"/>
<ellipse cx="83.4459" cy="118.911" rx="2" ry="2" transform="rotate(15.6283 83.4459 118.911)" fill="white"/>
<rect x="108.497" y="80.2449" width="12" height="7" transform="rotate(-15.731 108.497 80.2449)" fill="#6FE4BF"/>
<ellipse cx="115.221" cy="81.9871" rx="2" ry="2" transform="rotate(-15.731 115.221 81.9871)" fill="white"/>
<rect x="355.024" y="112" width="12" height="7" transform="rotate(40.2645 355.024 112)" fill="#D283F8"/>
<ellipse cx="357.341" cy="118.549" rx="2" ry="2" transform="rotate(40.2645 357.341 118.549)" fill="white"/>
<rect x="385.583" y="88" width="12" height="7" transform="rotate(8.90514 385.583 88)" fill="#225384"/>
<ellipse cx="390.97" cy="92.3866" rx="2" ry="2" transform="rotate(8.90514 390.97 92.3866)" fill="white"/>
</svg>
