<svg width="180" height="118" viewBox="0 0 180 118" fill="none" xmlns="http://www.w3.org/2000/svg">
<path d="M40.4063 30.6802C125.617 30.6802 273.819 87.9102 95.8244 108.112C-82.1706 128.314 40.4483 92.8822 61.7323 67.26C83.0163 41.6378 -19.6049 30.6802 40.4063 30.6802Z" fill="#F5F9FE"/>
<ellipse cx="44.6087" cy="13.3731" rx="9.39131" ry="9.44" fill="#E46F6F"/>
<path d="M84.5218 23.6001H84.9131V46.0201H73.9566L84.5218 23.6001Z" fill="#31A2FF"/>
<path d="M85.5579 23.8394H85.2874V45.3658H94.3044L85.5579 23.8394Z" fill="#2A8DDF"/>
<path d="M73.5652 46.9521H94.3044L92.501 49.6713H77.1721L73.5652 46.9521Z" fill="#2C2B3D"/>
<path d="M88.063 83.3867H162.391L158.273 88.8934H79.8261L88.063 83.3867Z" fill="#0E263F"/>
<path d="M79.8261 88.8936H158.087L155.152 92.4335H86.087L79.8261 88.8936Z" fill="#E46F6F"/>
<rect x="102.522" y="42.0864" width="1.56522" height="41.3" fill="#2C2B3D"/>
<rect x="84.9131" y="23.6001" width="0.782616" height="23.6" fill="#2C2B3D"/>
<path d="M101.958 42.0864H102.522V79.4531H83.7392L101.958 42.0864Z" fill="#31A2FF"/>
<path d="M134.217 22.8135H133.826V77.0935H152.609L134.217 22.8135Z" fill="#4DBB9F"/>
<path d="M131.478 22.8135H132.261V79.4535H112.304L131.478 22.8135Z" fill="#52C7A9"/>
<rect x="132.261" y="22.8135" width="1.56523" height="60.5733" fill="#2C2B3D"/>
<rect x="84.5218" y="22.4199" width="1.17391" height="1.18" fill="#E46F6F"/>
<rect x="131.478" y="19.6665" width="2.73912" height="3.14667" fill="#E46F6F"/>
</svg>
